<?xml version="1.0" encoding="UTF-8"?> <svg xmlns="http://www.w3.org/2000/svg" width="40" height="141" viewBox="0 0 40 141" fill="none"><circle cx="20" cy="120" r="20" fill="url(#paint0_linear_15_4)"></circle><path d="M19.9709 126.159C19.1224 126.159 18.3667 126.013 17.7038 125.722C17.0447 125.426 16.5239 125.021 16.1413 124.506C15.7625 123.987 15.5675 123.388 15.5561 122.71H18.0334C18.0485 122.994 18.1413 123.244 18.3118 123.46C18.486 123.672 18.7171 123.837 19.005 123.955C19.2929 124.072 19.6167 124.131 19.9766 124.131C20.3516 124.131 20.683 124.064 20.9709 123.932C21.2588 123.799 21.4841 123.616 21.647 123.381C21.8099 123.146 21.8913 122.875 21.8913 122.568C21.8913 122.258 21.8042 121.983 21.63 121.744C21.4595 121.502 21.2133 121.312 20.8913 121.176C20.5732 121.04 20.1944 120.972 19.755 120.972H18.6697V119.165H19.755C20.1262 119.165 20.4538 119.1 20.7379 118.972C21.0258 118.843 21.2493 118.665 21.4084 118.438C21.5675 118.206 21.647 117.938 21.647 117.631C21.647 117.339 21.5769 117.083 21.4368 116.864C21.3004 116.64 21.1072 116.466 20.8572 116.341C20.611 116.216 20.3232 116.153 19.9936 116.153C19.6603 116.153 19.3554 116.214 19.0788 116.335C18.8023 116.453 18.5807 116.621 18.4141 116.841C18.2474 117.061 18.1584 117.318 18.147 117.614H15.7891C15.8004 116.943 15.9917 116.352 16.3629 115.841C16.7341 115.33 17.2341 114.93 17.8629 114.642C18.4955 114.35 19.2095 114.205 20.005 114.205C20.808 114.205 21.5107 114.35 22.1129 114.642C22.7152 114.934 23.183 115.328 23.5163 115.824C23.8535 116.316 24.0201 116.869 24.0163 117.483C24.0201 118.134 23.8175 118.678 23.4084 119.114C23.0031 119.549 22.4747 119.826 21.8232 119.943V120.034C22.6792 120.144 23.3307 120.441 23.7777 120.926C24.2285 121.407 24.4519 122.009 24.4482 122.733C24.4519 123.396 24.2607 123.985 23.8743 124.5C23.4917 125.015 22.9633 125.42 22.2891 125.716C21.6148 126.011 20.8421 126.159 19.9709 126.159Z" fill="white"></path><line x1="19.5" y1="100" x2="19.5" y2="2.18557e-08" stroke="url(#paint1_linear_15_4)"></line><defs><linearGradient id="paint0_linear_15_4" x1="0" y1="120" x2="40" y2="120" gradientUnits="userSpaceOnUse"><stop stop-color="#9C39DA"></stop><stop offset="1" stop-color="#0087D5"></stop></linearGradient><linearGradient id="paint1_linear_15_4" x1="19.9999" y1="0" x2="20" y2="100" gradientUnits="userSpaceOnUse"><stop stop-color="#5060D8" stop-opacity="0"></stop><stop offset="1" stop-color="#5060D8"></stop></linearGradient></defs></svg> 