<?xml version="1.0" encoding="UTF-8"?> <svg xmlns="http://www.w3.org/2000/svg" width="40" height="141" viewBox="0 0 40 141" fill="none"><circle cx="20" cy="120" r="20" fill="url(#paint0_linear_15_3)"></circle><path d="M15.9041 126V124.227L20.0462 120.392C20.3984 120.051 20.6939 119.744 20.9325 119.472C21.175 119.199 21.3587 118.932 21.4837 118.67C21.6087 118.405 21.6712 118.119 21.6712 117.812C21.6712 117.472 21.5935 117.178 21.4382 116.932C21.2829 116.682 21.0708 116.491 20.8018 116.358C20.5329 116.222 20.228 116.153 19.8871 116.153C19.531 116.153 19.2204 116.225 18.9553 116.369C18.6901 116.513 18.4856 116.72 18.3416 116.989C18.1977 117.258 18.1257 117.578 18.1257 117.949H15.7905C15.7905 117.187 15.9628 116.527 16.3075 115.966C16.6522 115.405 17.1352 114.972 17.7564 114.665C18.3776 114.358 19.0935 114.205 19.9041 114.205C20.7375 114.205 21.4628 114.352 22.0803 114.648C22.7015 114.939 23.1844 115.345 23.5291 115.864C23.8738 116.383 24.0462 116.977 24.0462 117.648C24.0462 118.087 23.959 118.521 23.7848 118.949C23.6143 119.377 23.3094 119.852 22.87 120.375C22.4306 120.894 21.8113 121.517 21.0121 122.244L19.3132 123.909V123.989H24.1996V126H15.9041Z" fill="white"></path><line x1="19.5" y1="100" x2="19.5" y2="2.18557e-08" stroke="url(#paint1_linear_15_3)"></line><defs><linearGradient id="paint0_linear_15_3" x1="0" y1="120" x2="40" y2="120" gradientUnits="userSpaceOnUse"><stop stop-color="#FFB520"></stop><stop offset="1" stop-color="#FF8495"></stop></linearGradient><linearGradient id="paint1_linear_15_3" x1="19.9999" y1="0" x2="20" y2="100" gradientUnits="userSpaceOnUse"><stop stop-color="#FF9C5B" stop-opacity="0"></stop><stop offset="1" stop-color="#FF9C5B"></stop></linearGradient></defs></svg> 